<svg width="26" height="22" viewBox="0 0 26 22" fill="none" xmlns="http://www.w3.org/2000/svg">
<path d="M21.1124 16.9138V8.99061H23.7533V19.5551H0V8.99061H2.64091V16.9138H21.1124Z" fill="#BCBBBC"/>
<path d="M2.45605 8.78223L7.20865 17.3573L8.92955 16.4035L4.17695 7.82845L2.45605 8.78223ZM22.5613 7.68542L20.7716 6.8785L16.7038 15.8227L18.4935 16.6296L22.5613 7.68542ZM16.1334 5.68771L14.2788 15.3288L16.2095 15.6934L18.0641 6.05234L16.1334 5.68771ZM11.1145 5.65745L11.7901 15.4442L13.7514 15.3037L13.0758 5.51688L11.1145 5.65745ZM6.46718 6.78173L9.34844 16.1544L11.2281 15.5737L8.34682 6.20104L6.46718 6.78173" fill="#F48023"/>
</svg>
